<svg xmlns="http://www.w3.org/2000/svg" viewBox="0 0 1024 1024">
  <defs>
    <linearGradient id="bg" x1="0" y1="0" x2="1" y2="1">
      <stop offset="0" stop-color="#123B5A"/>
      <stop offset="1" stop-color="#081726"/>
    </linearGradient>
    <linearGradient id="pin" x1="0" y1="0" x2="0" y2="1">
      <stop offset="0" stop-color="#FF8A5B"/>
      <stop offset="1" stop-color="#F0452B"/>
    </linearGradient>
    <radialGradient id="glow" cx="0.68" cy="0.36" r="0.5">
      <stop offset="0" stop-color="#2E7FA8" stop-opacity=".55"/>
      <stop offset="1" stop-color="#2E7FA8" stop-opacity="0"/>
    </radialGradient>
  </defs>
  <rect width="1024" height="1024" fill="url(#bg)"/>
  <rect width="1024" height="1024" fill="url(#glow)"/>
  <!-- globe graticule -->
  <g fill="none" stroke="#8FC7E3" stroke-opacity=".16" stroke-width="10">
    <circle cx="512" cy="560" r="380"/>
    <ellipse cx="512" cy="560" rx="190" ry="380"/>
    <path d="M132 560h760M170 380h684M170 740h684"/>
  </g>
  <!-- route -->
  <path d="M250 800 C 330 690, 470 740, 520 640 S 600 470, 660 470" fill="none" stroke="#F4EFE6" stroke-width="30" stroke-linecap="round" stroke-dasharray="2 62"/>
  <circle cx="250" cy="800" r="40" fill="#F4EFE6"/>
  <circle cx="250" cy="800" r="18" fill="#0C2236"/>
  <!-- pin -->
  <g transform="translate(660 360)">
    <path d="M0 250 C -40 180 -150 110 -150 -10 A 150 150 0 1 1 150 -10 C 150 110 40 180 0 250 Z" fill="url(#pin)"/>
    <circle cx="0" cy="-10" r="62" fill="#F4EFE6"/>
    <circle cx="0" cy="-10" r="26" fill="#F0452B"/>
  </g>
</svg>
